<svg
  xmlns="http://www.w3.org/2000/svg"
  aria-hidden="true"
  style="display: none;"
>
  <symbol id="icon-Arrow" viewBox="0 0 28 32">
    <path d="M25.243 1.722c-0.154-1.094-1.165-1.856-2.259-1.702l-17.825 2.505c-1.094 0.154-1.856 1.165-1.702 2.259s1.165 1.856 2.259 1.702l15.844-2.227 2.227 15.844c0.154 1.094 1.165 1.856 2.259 1.702s1.856-1.165 1.702-2.259l-2.505-17.825zM3.194 31.955l21.665-28.751-3.195-2.407-21.665 28.751 3.195 2.407z"/>
  </symbol>

  <symbol id="icon-feCheck" viewBox="0 0 43 32">
<path d="M5.333 10.667l-5.333 5.333 16 16 26.667-26.667-5.333-5.333-21.333 21.333-10.667-10.667z"></path>
</symbol>

<symbol id="icon-eye-off" viewBox="0 0 32 32">
<path stroke-linejoin="round" stroke-linecap="round" stroke-miterlimit="4" stroke-width="3.2" d="M23.92 23.92c-2.279 1.737-5.055 2.7-7.92 2.747-9.333 0-14.667-10.667-14.667-10.667 1.659-3.091 3.959-5.791 6.747-7.92M13.2 5.653c0.918-0.215 1.857-0.322 2.8-0.32 9.333 0 14.667 10.667 14.667 10.667-0.809 1.514-1.775 2.94-2.88 4.253M18.827 18.827c-0.366 0.393-0.808 0.708-1.299 0.927s-1.020 0.336-1.557 0.346c-0.537 0.009-1.071-0.089-1.569-0.291s-0.95-0.501-1.33-0.88c-0.38-0.38-0.679-0.832-0.88-1.33s-0.3-1.032-0.29-1.569c0.009-0.537 0.127-1.067 0.346-1.558s0.534-0.932 0.927-1.298"></path>
<path stroke-linejoin="round" stroke-linecap="round" stroke-miterlimit="4" stroke-width="3.2" d="M1.333 1.333l29.333 29.333"></path>
</symbol>

<symbol id="icon-eye" viewBox="0 0 40 32">
<path stroke-linejoin="round" stroke-linecap="round" stroke-miterlimit="4" stroke-width="4" d="M29.9 25.233c-2.849 2.172-6.318 3.375-9.9 3.433-11.667 0-18.333-13.333-18.333-13.333 2.073-3.864 4.949-7.239 8.433-9.9M16.5 2.4c1.147-0.269 2.322-0.403 3.5-0.4 11.667 0 18.333 13.333 18.333 13.333-1.012 1.893-2.218 3.675-3.6 5.317M23.533 18.867c-0.458 0.491-1.010 0.885-1.623 1.159s-1.275 0.42-1.947 0.432c-0.671 0.012-1.338-0.112-1.961-0.363s-1.188-0.626-1.663-1.101-0.849-1.040-1.101-1.663c-0.251-0.623-0.375-1.289-0.363-1.961s0.159-1.333 0.432-1.947c0.273-0.613 0.667-1.165 1.159-1.623"></path>
</symbol>

<symbol id="icon-close" viewBox="0 0 32 32">
<path stroke-linejoin="round" stroke-linecap="round" stroke-miterlimit="4" stroke-width="2.5" d="M24 8l-16 16"></path>
<path stroke-linejoin="round" stroke-linecap="round" stroke-miterlimit="4" stroke-width="2.5" d="M8 8l16 16"></path>
</symbol>
</svg>
